HIERARCHY
ROOT Hips
{
	OFFSET 0.000000 0.000000 0.000000
	CHANNELS 6 Xposition Yposition Zposition Zrotation Yrotation Xrotation 
	JOINT LHipJoint
	{
		OFFSET 0.000000 0.000000 0.000000
		CHANNELS 3 Zrotation Yrotation Xrotation
		JOINT LeftUpLeg
		{
			OFFSET 1.363060 -1.794630 0.839290
			CHANNELS 3 Zrotation Yrotation Xrotation
			JOINT LeftLeg
			{
				OFFSET 2.448110 -6.726130 0.000000
				CHANNELS 3 Zrotation Yrotation Xrotation
				JOINT LeftFoot
				{
					OFFSET 2.562200 -7.039590 0.000000
					CHANNELS 3 Zrotation Yrotation Xrotation
					JOINT LeftToeBase
					{
						OFFSET 0.157640 -0.433110 2.322550
						CHANNELS 3 Zrotation Yrotation Xrotation
						End Site
						{
							OFFSET 0.000000 0.000000 0.000000
						}
					}
				}
			}
		}
	}
	JOINT RHipJoint
	{
		OFFSET 0.000000 0.000000 0.000000
		CHANNELS 3 Zrotation Yrotation Xrotation
		JOINT RightUpLeg
		{
			OFFSET -1.305520 -1.794630 0.839290
			CHANNELS 3 Zrotation Yrotation Xrotation
			JOINT RightLeg
			{
				OFFSET -2.542530 -6.985550 0.000000
				CHANNELS 3 Zrotation Yrotation Xrotation
				JOINT RightFoot
				{
					OFFSET -2.568260 -7.056230 0.000000
					CHANNELS 3 Zrotation Yrotation Xrotation
					JOINT RightToeBase
					{
						OFFSET -0.164730 -0.452590 2.363150
						CHANNELS 3 Zrotation Yrotation Xrotation
						End Site
						{
							OFFSET 0.000000 0.000000 0.000000
						}
					}
				}
			}
		}
	}
}
MOTION
Frames: 30
Frame Time: 0.008333
-3.741076 16.759719 1.635281 167.734243 87.298341 -175.308595 -11.018673 4.854406 2.590235 -7.334168 0.125100 1.249113 -1.145465 0.997042 20.950086 -0.080273 -4.364672 8.117885 -0.937700 0.000001 -71.556400 9.018222 -0.891189 3.066518 9.612752 -2.887968 -45.620459 3.376927 -1.644574 22.653281 1.546207 9.410669 4.832447 1.727500 0.000000 -49.779300
-3.555843 16.695288 1.643634 170.715598 87.179964 -172.256969 -11.054732 4.961182 2.729981 -6.996765 -0.000393 1.156713 -1.079406 1.042450 21.917192 -0.066510 -4.466263 8.093038 -0.969400 -0.000000 -73.087500 9.034939 -0.865476 2.979887 9.834463 -3.052856 -47.020521 3.208843 -2.036795 26.643253 1.499272 9.503953 2.850052 1.506001 -0.000000 -47.099900
-3.377108 16.635981 1.647865 174.510083 87.084826 -168.441524 -11.112170 5.074139 2.846520 -6.617887 -0.118708 1.049761 -1.005737 1.106334 22.959096 -0.042891 -4.528826 8.178277 -1.005400 -0.000001 -74.655500 9.045569 -0.814581 2.830219 10.141638 -3.289061 -48.145650 3.041640 -2.386515 30.447842 1.454189 9.657285 0.933314 1.292300 -0.000000 -44.986000
-3.205232 16.583273 1.648217 179.025237 87.002388 -163.945162 -11.210945 5.191189 2.934665 -6.177296 -0.209152 0.903352 -0.923702 1.190362 24.085279 -0.009737 -4.590811 8.418718 -1.059200 -0.000000 -76.107600 9.031455 -0.749804 2.634688 10.525407 -3.549260 -48.925971 2.888123 -2.666542 33.829030 1.407153 9.802455 -0.836012 1.081200 0.000000 -43.622700
-3.040236 16.538189 1.645356 -176.226516 86.893772 -159.246281 -11.362337 5.302179 2.994412 -5.672436 -0.267779 0.698530 -0.830526 1.290610 25.301373 0.032443 -4.678969 8.852546 -1.141000 0.000000 -77.278900 8.977849 -0.690018 2.408735 10.968118 -3.820203 -49.355176 2.759780 -2.870873 36.666369 1.355631 9.897801 -2.432346 0.874500 0.000000 -43.051100
-2.881735 16.501158 1.640694 -171.996427 86.704251 -155.086859 -11.551704 5.392602 3.029341 -5.123891 -0.314118 0.428550 -0.723430 1.398737 26.605669 0.083374 -4.797324 9.500179 -1.255000 0.000000 -77.979900 8.890085 -0.653131 2.168314 11.435495 -4.113793 -49.472492 2.664234 -3.009566 38.926247 1.297275 9.916914 -3.862462 0.677400 -0.000000 -43.191500
-2.729199 16.472220 1.635289 -168.613875 86.407222 -151.789376 -11.758405 5.456443 3.041758 -4.537979 -0.350729 0.086378 -0.603378 1.508791 27.993254 0.143558 -4.946004 10.355957 -1.403200 0.000000 -78.049400 8.781497 -0.645261 1.925397 11.909555 -4.430665 -49.321959 2.603810 -3.094366 40.623167 1.229042 9.833878 -5.142110 0.494600 -0.000000 -43.852300
-2.581797 16.451042 1.630827 -166.439155 85.990879 -149.705065 -11.946744 5.491841 3.037875 -3.956539 -0.401288 -0.325270 -0.474461 1.614648 29.448217 0.213909 -5.088270 11.386331 -1.575000 -0.000000 -77.322901 8.679766 -0.660696 1.691114 12.348148 -4.782685 -48.968928 2.574715 -3.139818 41.818421 1.149347 9.639507 -6.292901 0.331300 0.000000 -44.793100
-2.438572 16.437192 1.628288 -165.396014 85.469695 -148.747783 -12.099012 5.502505 3.023133 -3.406187 -0.467550 -0.812172 -0.342529 1.712849 30.957771 0.294584 -5.182831 12.526259 -1.752400 -0.000000 -75.690000 8.600391 -0.689910 1.473961 12.725957 -5.162744 -48.469973 2.569747 -3.155160 42.586840 1.056751 9.326135 -7.329514 0.191500 -0.000000 -45.756100
-2.298524 16.430129 1.628620 -165.402368 84.863354 -148.824064 -12.200607 5.491548 3.003963 -2.928172 -0.556815 -1.376760 -0.213045 1.799735 32.505495 0.384240 -5.166634 13.687370 -1.903000 -0.000000 -73.144800 8.557182 -0.723323 1.281762 13.009443 -5.567750 -47.887223 2.579819 -3.149893 43.020140 0.951676 8.901673 -8.264368 0.078099 -0.000000 -46.520501
-2.160978 16.429588 1.630375 -165.820263 84.197837 -149.289349 -12.281837 5.462581 2.979581 -2.473221 -0.614189 -2.051477 -0.088760 1.876602 34.104963 0.480547 -5.018279 14.766963 -2.002900 0.000000 -69.594600 8.526829 -0.764552 1.119698 13.242249 -5.946948 -47.238892 2.597949 -3.123528 43.175521 0.831888 8.350849 -9.087771 -0.005700 -0.000001 -46.947800
-2.024962 16.434886 1.634938 -166.889989 83.488813 -150.371702 -12.316060 5.415873 2.958018 -2.128000 -0.676735 -2.818950 0.027751 1.938990 35.724069 0.580643 -4.634346 15.670848 -1.997501 0.000000 -65.342501 8.533629 -0.804005 0.993065 13.364328 -6.327046 -46.599050 2.615480 -3.090059 43.163367 0.703509 7.724358 -9.813398 -0.061700 0.000000 -46.981000
-1.890065 16.445781 1.641089 -168.267939 82.758599 -151.722531 -12.322293 5.353314 2.939048 -1.875215 -0.715985 -3.691231 0.136573 1.988301 37.359782 0.682749 -3.977500 16.317776 -1.858200 0.000001 -60.613000 8.563544 -0.844763 0.903026 13.402813 -6.684412 -45.987220 2.628114 -3.051725 43.040095 0.569531 7.042729 -10.433800 -0.092000 0.000000 -46.661000
-1.756174 16.461965 1.648153 -169.825354 82.028680 -153.214298 -12.306641 5.276070 2.922072 -1.724628 -0.726475 -4.655444 0.238233 2.025588 38.992350 0.787063 -3.011680 16.660279 -1.565900 0.000000 -55.815500 8.612882 -0.886596 0.845656 13.365706 -7.020833 -45.419315 2.633413 -3.012904 42.859716 0.436030 6.346862 -10.947907 -0.101800 0.000000 -46.097200
-1.622992 16.483287 1.654662 -171.324596 81.315436 -154.599118 -12.286802 5.186282 2.910288 -1.644866 -0.692503 -5.734925 0.333017 2.053196 40.626422 0.894445 -1.743781 16.649477 -1.127201 -0.000000 -51.046800 8.666612 -0.934899 0.823633 13.297713 -7.312289 -44.906781 2.632452 -2.972279 42.636867 0.306579 5.656327 -11.348110 -0.095500 -0.000000 -45.433800
-1.491152 16.509504 1.660369 -172.791006 80.637734 -155.921267 -12.258372 5.084075 2.898141 -1.657806 -0.626192 -6.877849 0.420610 2.072847 42.224305 1.008635 -0.182787 16.302864 -0.563500 0.000000 -46.789200 8.728556 -0.986219 0.821826 13.193717 -7.590241 -44.433938 2.627041 -2.933395 42.395323 0.189525 5.023146 -11.640033 -0.080500 -0.000000 -44.824900
-1.361007 16.540485 1.664352 -174.109728 80.006884 -157.071933 -12.229845 4.970751 2.884388 -1.739087 -0.525611 -8.076423 0.499685 2.087485 43.777959 1.132271 1.614535 15.623839 0.079800 0.000000 -43.071400 8.789994 -1.042833 0.833893 13.085129 -7.854232 -43.983667 2.621372 -2.893629 42.119216 0.088652 4.465945 -11.822118 -0.061800 0.000000 -44.404600
-1.232914 16.575962 1.666160 -175.237568 79.428793 -158.016234 -12.204212 4.847504 2.867859 -1.872071 -0.395550 -9.314866 0.568605 2.099259 45.272388 1.267605 3.574703 14.641160 0.746800 -0.000000 -39.904900 8.846633 -1.105625 0.852618 12.991318 -8.112570 -43.535734 2.619848 -2.850592 41.786069 0.006820 3.998668 -11.896581 -0.043100 -0.000000 -44.267000
-1.107481 16.615726 1.665647 -176.156935 78.904003 -158.754182 -12.182183 4.714976 2.844391 -2.040668 -0.243177 -10.562957 0.625772 2.110653 46.688585 1.415373 5.613101 13.399875 1.380000 -0.000000 -37.225200 8.895965 -1.174290 0.866828 12.923106 -8.380455 -43.054922 2.626512 -2.801645 41.366261 -0.054616 3.626884 -11.867014 -0.027200 0.000000 -44.461400
-0.985069 16.659385 1.662900 -176.871766 78.426701 -159.302859 -12.163621 4.574266 2.812158 -2.229399 -0.077175 -11.798073 0.670255 2.123099 48.008806 1.574076 7.641157 11.959432 1.928400 0.000001 -34.938500 8.936527 -1.248544 0.868580 12.886460 -8.670616 -42.513367 2.644376 -2.744293 40.830980 -0.096458 3.344442 -11.738128 -0.015100 -0.000000 -44.985401
-0.865902 16.706465 1.658235 -177.406193 77.986941 -159.697282 -12.147361 4.426705 2.770582 -2.427058 0.091311 -13.000365 0.702007 2.137199 49.216083 1.739746 9.576178 10.390044 2.355999 -0.000000 -32.957600 8.968332 -1.327372 0.851868 12.879743 -8.994284 -41.889325 2.674947 -2.676697 40.157807 -0.121033 3.137488 -11.515753 -0.006801 -0.000000 -45.792700
-0.749908 16.756387 1.652032 -177.785192 77.572539 -159.967818 -12.132638 4.274007 2.720934 -2.623161 0.251809 -14.158335 0.721698 2.152846 50.296354 1.906078 11.346408 8.764402 2.644999 -0.000000 -31.214400 8.991570 -1.409857 0.814233 12.899499 -9.355447 -41.169464 2.718084 -2.597333 39.331926 -0.132216 2.983946 -11.205513 -0.001700 -0.000000 -46.801200
-0.636899 16.808526 1.644748 -178.054460 77.170947 -160.164251 -12.117174 4.117906 2.664962 -2.815644 0.393317 -15.261018 0.730608 2.169045 51.237056 2.065382 12.897550 7.151847 2.796700 0.000000 -29.662200 9.008590 -1.494300 0.754524 12.934549 -9.758938 -40.348898 2.772188 -2.506237 38.352762 -0.133873 2.862980 -10.815353 0.001100 0.000000 -47.900900
-0.526453 16.862185 1.636744 -178.248236 76.772300 -160.318540 -12.099556 3.960372 2.605674 -3.004115 0.507883 -16.306281 0.730011 2.184426 52.030047 2.209573 14.191699 5.607709 2.825899 -0.000000 -28.266999 9.021334 -1.579415 0.675036 12.975414 -10.200936 -39.432371 2.834561 -2.403897 37.229656 -0.130086 2.753022 -10.353664 0.002100 -0.000000 -48.974800
-0.418026 16.916637 1.628297 -178.413194 76.368784 -160.472312 -12.077222 3.803228 2.546853 -3.196782 0.587155 -17.295409 0.721168 2.196910 52.669912 2.331848 15.210982 4.173255 2.757300 0.000000 -27.025900 9.033372 -1.663473 0.579542 13.008161 -10.677829 -38.435275 2.901770 -2.292406 35.986626 -0.123642 2.640908 -9.830901 0.001301 0.000000 -49.914300
-0.310968 16.971201 1.619512 -178.578713 75.957550 -160.645776 -12.048611 3.648317 2.492731 -3.402055 0.626577 -18.236590 0.704691 2.204626 53.155958 2.427149 15.951733 2.866691 2.616500 -0.000000 -25.911900 9.047307 -1.745417 0.473913 13.023759 -11.179471 -37.380062 2.970261 -2.174190 34.654654 -0.116645 2.517875 -9.258167 -0.001299 0.000000 -50.642100
-0.204725 17.025302 1.610054 -178.730750 75.540619 -160.814209 -12.015021 3.496888 2.446520 -3.618413 0.629016 -19.143967 0.680504 2.206877 53.492542 2.492484 16.420222 1.685572 2.425100 -0.000000 -24.895400 9.062422 -1.825798 0.365527 13.025250 -11.682907 -36.286631 3.036865 -2.050707 33.261284 -0.111200 2.374566 -8.644444 -0.006400 0.000000 -51.128200
-0.098675 17.078361 1.599793 -178.901537 75.120369 -160.999104 -11.974007 3.350146 2.412324 -3.861721 0.590034 -20.028018 0.648398 2.201905 53.684007 2.528174 16.641152 0.614375 2.201700 0.000000 -23.951000 9.082075 -1.903596 0.259887 13.003366 -12.182278 -35.186489 3.099260 -1.926035 31.849166 -0.106084 2.222977 -8.003807 -0.014200 0.000000 -51.379000
0.007541 17.130018 1.588077 -179.050872 74.703125 -161.151624 -11.928244 3.208296 2.391661 -4.124952 0.516923 -20.903581 0.607594 2.190248 53.739880 2.535990 16.640439 -0.375089 1.957300 -0.000000 -23.049500 9.103345 -1.980614 0.163057 12.970565 -12.653262 -34.094947 3.156140 -1.801234 30.440815 -0.101614 2.063827 -7.343860 -0.024899 0.000000 -51.453000
0.114208 17.179893 1.574570 -179.183624 74.293293 -161.269670 -11.876950 3.071542 2.386516 -4.414755 0.409213 -21.779884 0.557398 2.171622 53.669626 2.520106 16.455632 -1.316184 1.699800 0.000000 -22.149800 9.127024 -2.056967 0.078238 12.927302 -13.090515 -33.033573 3.207231 -1.679181 29.066023 -0.095481 1.914319 -6.674569 -0.037900 -0.000000 -51.431000
